<?xml version="1.0" standalone="no"?>
<!DOCTYPE svg PUBLIC "-//W3C//DTD SVG 20010904//EN"
 "http://www.w3.org/TR/2001/REC-SVG-20010904/DTD/svg10.dtd">
<svg version="1.0" xmlns="http://www.w3.org/2000/svg"
 width="500.000000pt" height="500.000000pt" viewBox="0 0 500.000000 500.000000"
 preserveAspectRatio="xMidYMid meet">
<metadata>
Created by potrace 1.11, written by Peter Selinger 2001-2013
</metadata>
<g transform="translate(0.000000,500.000000) scale(0.100000,-0.100000)"
fill="#000000" stroke="none">
<path d="M3079 3664 c-9 -11 -9 -18 -1 -26 14 -14 42 -3 42 16 0 20 -27 27
-41 10z"/>
<path d="M3204 3545 c-4 -9 -2 -21 4 -27 15 -15 44 -1 40 19 -4 23 -36 29 -44
8z"/>
<path d="M3160 3385 c-26 -31 13 -82 44 -56 19 16 21 42 4 59 -16 16 -33 15
-48 -3z"/>
<path d="M3300 3294 c-139 -73 -170 -91 -170 -102 0 -16 18 -33 36 -36 14 -2
72 -108 230 -421 l211 -419 119 -78 119 -78 7 37 c3 21 7 86 9 144 l2 105
-211 417 c-187 368 -210 420 -200 437 13 20 3 50 -18 57 -5 1 -65 -27 -134
-63z"/>
<path d="M1830 2511 l0 -241 55 0 54 0 3 57 c2 31 8 58 14 60 5 2 30 -24 54
-57 l43 -60 64 0 c35 0 63 3 63 6 0 3 -32 44 -70 91 l-70 85 61 69 c34 38 65
72 70 75 24 14 3 24 -50 24 l-58 0 -59 -71 -59 -70 -5 133 -5 133 -52 3 -53 3
0 -240z"/>
<path d="M1007 2693 c-4 -3 -7 -24 -7 -45 0 -34 -3 -38 -26 -38 -23 0 -25 -3
-22 -32 2 -25 8 -34 26 -36 21 -3 22 -8 22 -95 0 -160 18 -187 125 -187 l55 0
0 35 c0 28 -4 35 -19 35 -40 0 -51 26 -51 120 l0 89 38 3 c34 3 37 6 40 36 3
31 2 32 -37 32 l-41 0 0 45 0 45 -48 0 c-27 0 -52 -3 -55 -7z"/>
<path d="M1286 2616 c-48 -18 -82 -51 -91 -88 -7 -28 -7 -28 43 -28 42 0 52 4
66 25 29 44 86 25 86 -29 0 -12 -11 -16 -42 -16 -66 0 -114 -18 -142 -51 -43
-51 -31 -126 25 -155 42 -21 126 -15 146 12 12 16 13 16 13 1 0 -14 10 -17 55
-17 l54 0 -5 133 c-6 148 -15 182 -53 202 -43 22 -112 26 -155 11z m104 -208
c0 -34 -15 -60 -37 -69 -56 -21 -86 41 -33 68 32 16 70 17 70 1z"/>
<path d="M1605 2615 c-52 -19 -85 -57 -85 -100 0 -48 34 -82 109 -108 69 -24
97 -50 71 -67 -27 -17 -59 -11 -76 15 -14 21 -24 25 -65 25 -41 0 -49 -3 -49
-19 0 -27 39 -71 76 -87 45 -19 128 -18 171 3 23 11 41 29 50 51 28 68 -8 123
-97 149 -65 18 -80 29 -80 54 0 28 56 27 65 -1 5 -17 15 -20 61 -20 53 0 55 1
49 23 -11 35 -56 76 -94 87 -46 13 -57 12 -106 -5z"/>
<path d="M2276 2616 c-48 -18 -82 -51 -91 -88 -7 -28 -7 -28 43 -28 42 0 52 4
66 25 29 44 86 25 86 -29 0 -12 -11 -16 -42 -16 -101 0 -168 -47 -168 -116 0
-46 14 -70 52 -90 41 -21 126 -14 145 12 12 16 13 16 13 1 0 -14 10 -17 55
-17 l54 0 -5 133 c-6 148 -15 182 -53 202 -43 22 -112 26 -155 11z m104 -208
c0 -34 -15 -60 -37 -69 -56 -21 -86 41 -33 68 32 16 70 17 70 1z"/>
<path d="M2700 2623 c-14 -3 -35 -14 -47 -26 l-23 -20 0 22 c0 20 -4 22 -52
19 l-53 -3 -3 -237 -2 -238 55 0 55 0 0 80 0 80 20 -20 c29 -29 116 -28 161 3
127 85 109 298 -29 337 -38 10 -40 10 -82 3z m54 -96 c72 -73 13 -223 -73
-187 -34 14 -51 47 -51 101 0 94 69 141 124 86z"/>
<path d="M3090 2623 c-14 -3 -35 -14 -47 -26 l-23 -20 0 22 c0 20 -4 22 -52
19 l-53 -3 -3 -237 -2 -238 55 0 55 0 0 80 0 80 20 -20 c29 -29 116 -28 161 3
127 85 109 298 -29 337 -38 10 -40 10 -82 3z m54 -96 c73 -73 13 -223 -74
-187 -37 15 -54 58 -48 122 8 82 71 116 122 65z"/>
</g>
</svg>
